<svg width="162" height="162" viewBox="0 0 162 162" fill="none" xmlns="http://www.w3.org/2000/svg">
<path d="M79.9975 0.0160093C88.2558 -0.36772 95.07 6.19654 95.07 14.3501C95.0697 20.1281 91.6404 25.1105 86.7005 27.3797C85.3455 28.0082 84.4975 29.3886 84.4975 30.8791V30.8956C84.4975 32.3861 85.3399 33.7706 86.7005 34.3936C91.6408 36.6628 95.0699 41.6462 95.07 47.4247C95.07 53.2032 91.6407 58.1865 86.7005 60.4558C85.3457 61.0841 84.4977 62.4635 84.4975 63.9537V63.9717C84.4977 65.4621 85.3401 66.8468 86.7005 67.4696C91.6407 69.7389 95.07 74.7223 95.07 80.5007C95.0699 86.2792 91.6407 91.2625 86.7005 93.5318C85.3456 94.1603 84.4976 95.5394 84.4975 97.0298V97.0462C84.4975 98.5368 85.3399 99.9229 86.7005 100.546C91.6406 102.815 95.07 107.798 95.07 113.577C95.0698 119.355 91.6407 124.339 86.7005 126.608C85.3455 127.236 84.4975 128.615 84.4975 130.106V130.122C84.4977 131.614 85.34 132.998 86.7005 133.62C91.6406 135.89 95.0698 140.867 95.07 146.651C95.07 154.805 88.2558 161.368 79.9975 160.984C72.6481 160.645 66.6822 154.711 66.3142 147.385C66.0078 141.312 69.4973 136.011 74.627 133.637C75.9986 133.003 76.8686 131.63 76.8688 130.122V130.106C76.8688 128.616 76.0275 127.231 74.6673 126.608C69.727 124.339 66.2965 119.355 66.2963 113.577C66.2963 107.798 69.7268 102.815 74.6673 100.546C76.0222 99.9172 76.8688 98.5367 76.8688 97.0462V97.0298C76.8687 95.5396 76.0276 94.1548 74.6673 93.5318C69.7269 91.2626 66.2964 86.2793 66.2963 80.5007C66.2963 74.7221 69.7268 69.7388 74.6673 67.4696C76.0219 66.8411 76.8686 65.4619 76.8688 63.9717V63.9537C76.8686 62.4636 76.0275 61.0786 74.6673 60.4558C69.7268 58.1866 66.2963 53.2034 66.2963 47.4247C66.2964 41.6461 69.7269 36.6627 74.6673 34.3936C76.022 33.765 76.8688 32.3858 76.8688 30.8956V30.8791C76.8688 29.372 75.9987 27.9972 74.627 27.3632C69.503 24.9882 66.0131 19.6936 66.3142 13.6149C66.6824 6.29022 72.6482 0.35527 79.9975 0.0160093Z" fill="white"/>
<path d="M13.6409 66.1741C19.7803 65.8626 25.1235 69.3944 27.4822 74.5612C28.0791 75.8622 29.4003 76.6845 30.833 76.6845H31.1058C32.5441 76.6845 33.8597 75.8622 34.4565 74.5612C36.8209 69.3944 42.1641 65.8682 48.2978 66.1741C55.6188 66.5415 61.5517 72.4635 61.92 79.7656L61.9364 80.3274C62.001 86.1623 58.576 91.2087 53.6117 93.5094C52.24 94.1489 51.3639 95.523 51.3639 97.0358C51.364 98.5317 52.2125 99.9158 53.5729 100.544C58.5075 102.819 61.9362 107.797 61.9364 113.575C61.9364 121.729 55.1222 128.293 46.8639 127.909C39.5148 127.57 33.5488 121.636 33.1806 114.31C32.8795 108.232 36.3645 102.937 41.489 100.562C42.8607 99.9226 43.7351 98.5485 43.7352 97.0358C43.7352 95.5453 42.8883 94.1603 41.5277 93.5318C38.4164 92.1026 35.9075 89.5941 34.4744 86.4911C33.861 85.1618 32.5559 84.2886 31.0894 84.2886H30.8494C29.3829 84.2886 28.0777 85.1618 27.4643 86.4911C26.0312 89.5941 23.5223 92.1026 20.411 93.5318C19.0505 94.1548 18.2035 95.5396 18.2035 97.0358C18.2036 98.5316 19.0506 99.9157 20.411 100.544C25.3458 102.819 28.7743 107.797 28.7745 113.575C28.7745 121.729 21.9603 128.293 13.702 127.909C6.3531 127.57 0.38688 121.635 0.0187224 114.31C-0.282381 108.232 3.20283 102.937 8.32708 100.562C9.69873 99.9226 10.5747 98.5485 10.5748 97.0358C10.5748 95.5285 9.69882 94.1494 8.32708 93.5154C3.20261 91.1405 -0.287966 85.8389 0.0187224 79.7656C0.381514 72.4635 6.31989 66.5415 13.6409 66.1741Z" fill="white"/>
<path d="M114.537 33.0861C121.885 33.4255 127.852 39.3604 128.22 46.685C128.522 52.7582 125.037 58.0583 119.907 60.4333C118.535 61.0673 117.665 62.4421 117.665 63.9492V63.9657C117.665 65.456 118.512 66.8407 119.867 67.4637C122.966 68.893 125.477 71.3901 126.91 74.482C127.54 75.8336 128.923 76.68 130.417 76.68H130.445C131.95 76.68 133.329 75.8118 133.965 74.4491C136.351 69.3384 141.659 65.8626 147.748 66.1682L147.754 66.1622C155.097 66.5296 161.042 72.486 161.382 79.8104C161.767 88.0474 155.186 94.8438 147.011 94.8438C141.207 94.8435 136.211 91.4182 133.935 86.4851C133.311 85.1282 131.923 84.2828 130.429 84.2826C128.918 84.2826 127.539 85.1558 126.904 86.5239C124.523 91.6406 119.209 95.1276 113.115 94.8273C105.788 94.4659 99.8486 88.5425 99.4806 81.2344C99.1741 75.1555 102.665 69.8549 107.795 67.4801C109.166 66.8461 110.037 65.4727 110.037 63.9657V63.9492C110.037 62.4588 109.194 61.0741 107.834 60.4513C102.893 58.1821 99.4642 53.2029 99.4642 47.4187C99.4645 39.2655 106.279 32.7024 114.537 33.0861Z" fill="white"/>
</svg>
